<svg width="52" height="52" viewBox="0 0 52 52" fill="none" xmlns="http://www.w3.org/2000/svg">
<circle cx="26" cy="26" r="25.35" fill="white" stroke="url(#paint0_linear)" stroke-width="1.3"/>
<path d="M19.4534 26.9381L22.1332 17.106L28.9952 12.6522H30.3893L37.3584 8.4502V9.79469L30.8649 13.5764L39.1808 10.2989L42.1826 10.3832L40.1457 12.3158L31.6754 15.0048L41.4323 13.2404L45.0774 13.3243L41.861 14.6688L33.1766 16.1815L42.1826 16.0136L46.1499 16.9378L42.1826 18.1984L34.0345 17.6942L40.5744 19.039L42.3972 20.5517L39.8241 20.8038L34.6778 19.2908L39.7166 21.728L40.5744 23.325L35.6427 23.5771L36.9293 24.4934L37.3584 26.1821L35.7498 26.9381L36.286 28.3669L34.9994 28.9554L35.1065 29.9639H32.8012V31.0566H30.8649L31.5684 31.8968L28.674 31.5608L31.5684 32.9889L33.8203 34.2498L42.1826 34.8379L43.3622 36.0142L42.1826 36.687L36.286 35.2586L42.8259 37.3595L43.7909 38.2836H41.1102L36.286 36.687L42.0756 38.8718L42.8259 39.881L41.1102 40.3002L32.3192 37.0234L29.6385 36.8552L31.4613 39.376L29.746 38.9561L30.8649 40.3002L24.9213 39.881L22.7769 38.5357L22.4552 37.0234L20.8466 33.577L14.9499 30.4674L16.4565 30.4913L14.9499 29.3707L17.0292 29.2589L15.5996 28.6426L16.9577 28.4744L15.7426 27.802L17.3864 27.4099L16.0283 26.4571L19.4534 26.9381Z" fill="black"/>
<path d="M19.5 25.4357L12.1997 23.5759L11.2499 21.4502L9.75 22.9688V24.1072L14.1499 25.9292L19.1993 26.6502L19.5 25.4357Z" fill="black"/>
<path d="M26 41.1104L24.6236 41.9112V42.6404L24.8523 43.1863L23.7056 42.7856V41.8391L22.9598 42.7493L23.3612 43.5502L22.1 42.5307L23.4764 41.1104L24.4509 40.9502L26 41.1104Z" fill="black"/>
<path d="M22.75 40.9502L21.761 41.3599L21.45 42.2137L22.1235 42.9002L21.761 42.2186L22.75 40.9502Z" fill="black"/>
<path d="M22.75 40.3L21.3078 41.2L21.0235 41.7288L20.5365 41.8708L21.1358 40.8401L20.1193 41.2073L19.8556 42.2504L19.5103 41.7213L20.0995 40.6403L19.3274 41.1619L19.2466 41.9783L18.85 41.2752L19.7946 40.1792H21.5417L22.0804 39.6504L22.75 40.3Z" fill="black"/>
<path d="M6.87742 28.249L7.72956 27.5637H9.10166L9.14963 27.1829L10.5697 26.6504H14.8001L16.25 27.6019L13.9778 27.8307L16.0133 28.6004L13.7886 28.9336L15.8717 29.5043H13.9778L15.3037 30.5504H13.9552L8.70071 29.238H7.35168L6.5 29.6374L6.87742 28.249ZM10.3805 28.0551C10.5751 28.0551 10.7326 27.9282 10.7326 27.7722C10.7326 27.6154 10.5747 27.4888 10.3805 27.4888C10.1855 27.4888 10.0276 27.6158 10.0276 27.7722C10.0276 27.9282 10.186 28.0551 10.3805 28.0551Z" fill="black"/>
<defs>
<linearGradient id="paint0_linear" x1="-2.3038" y1="7.7037" x2="60.3881" y2="35.5682" gradientUnits="userSpaceOnUse">
<stop stop-color="#F9804B"/>
<stop offset="1" stop-color="#FE9013"/>
</linearGradient>
</defs>
</svg>
