<svg width="52" height="52" viewBox="0 0 52 52" fill="none" xmlns="http://www.w3.org/2000/svg">
<circle cx="26" cy="26" r="25.35" fill="white" stroke="url(#paint0_linear)" stroke-width="1.3"/>
<path d="M27.4763 18.2564C27.4763 18.2564 29.0197 16.7679 30.4035 16.2717C30.4035 16.2717 27.1569 11.8475 20.2912 10.4004C20.2912 10.4004 17.9494 11.8062 17.5236 14.5765C17.5236 14.5765 15.714 14.9486 15.714 15.8996L17.8961 16.7265C17.8961 16.7265 22.0475 16.1063 22.5798 16.2304C23.112 16.3544 22.7394 17.8429 22.2604 18.091C22.2604 18.091 22.4201 18.5872 22.7394 18.7939C22.7394 18.7939 21.675 20.4892 18.9074 19.5795C18.9074 19.5795 20.4508 22.143 16.5656 22.8046C16.5656 22.8046 14.3302 22.3084 14.0109 19.993C14.0109 19.993 16.6188 20.1584 16.8849 20.4478C16.8849 20.4478 17.4703 20.117 15.3414 19.8276C15.3414 19.8276 15.0221 19.5795 16.193 18.7939L15.3947 18.7526L15.1818 17.016C15.1818 17.016 10.2853 17.8843 9.06113 20.8199C9.06113 20.8199 6.34676 26.898 12.3609 40.0465C12.3609 40.0465 16.3527 40.6667 19.0138 39.9224C19.0138 39.9224 19.1735 38.0204 18.8009 37.7724L17.0446 36.9868C17.0446 36.9868 20.5041 32.2732 19.4396 31.4049C19.4396 31.4049 18.4284 30.6606 18.1622 30.2058C18.1622 30.2058 19.6525 30.7846 20.2379 30.7846C20.2379 30.7846 20.9298 28.6346 22.2604 27.1047C22.2604 27.1047 19.067 37.4416 20.3976 40.2945C20.3976 40.2945 29.3391 42.2792 28.8601 39.3436C28.8601 39.3436 28.9133 38.2685 27.5295 37.3589C27.5295 37.3589 29.9777 35.2088 30.0842 34.9194C30.0842 34.9194 32.1067 34.0511 30.6164 30.4952C29.1262 26.9393 30.5632 30.4125 30.5632 30.4125C30.5632 30.4125 40.7288 23.1767 34.1823 17.4708C34.1823 17.4708 31.5744 15.0726 27.4763 18.2564Z" fill="black"/>
<path d="M21.8564 16.933H20.4427H16.6907L15.7119 16.5098C15.7119 16.5098 16.1469 17.991 16.3644 18.0968C16.3644 18.0968 17.5607 18.1497 18.2132 17.7265C18.2132 17.7265 19.4639 18.6787 19.8445 18.7316C19.8445 18.7316 21.6933 17.9381 21.8564 16.933Z" fill="black"/>
<path d="M17.9143 18.1758L17.4714 18.8827C17.4714 18.8827 17.1023 19.2867 17.9143 19.2867H18.5049V18.3778C18.5049 18.3778 18.2096 18.1758 18.062 18.1758" fill="black"/>
<path d="M17.3877 18.1758L16.9089 18.7312L16.2705 18.6618C16.2705 18.6618 16.7493 18.2105 17.3877 18.1758Z" fill="black"/>
<path d="M36.6698 24.8603C36.6698 24.8603 34.2905 28.7105 31.9111 30.3427L32.2813 32.77C32.2813 32.77 33.4974 32.5189 33.6031 32.6026C33.7089 32.6863 36.9871 37.7921 36.9342 38.085C36.9342 38.085 35.8238 38.4617 35.8238 38.7546L35.7181 39.6335C35.7181 39.6335 41.5871 40.0938 43.2791 39.6335C43.2791 39.6335 45.0768 38.0432 43.6492 34.6114C43.6492 34.6114 41.1113 32.3515 41.0584 31.5982C41.0584 31.5982 40.5825 30.3008 41.3756 28.7105C41.4285 28.6268 42.6446 24.5254 36.6698 24.8603Z" fill="black"/>
<path d="M32.0323 33.8164C32.0323 33.8164 32.0892 35.144 28.5596 37.2916C28.5596 37.2916 30.1536 38.8145 29.812 39.2831L31.406 39.1269C31.406 39.1269 32.4877 36.784 32.4877 36.5497C32.4877 36.5497 31.6907 36.0421 31.5768 35.7688C31.5768 35.7688 34.4233 34.5973 33.3416 33.8164C33.057 33.6992 32.0323 33.6992 32.0323 33.8164Z" fill="black"/>
<defs>
<linearGradient id="paint0_linear" x1="-2.3038" y1="7.7037" x2="60.3881" y2="35.5682" gradientUnits="userSpaceOnUse">
<stop stop-color="#F9804B"/>
<stop offset="1" stop-color="#FE9013"/>
</linearGradient>
</defs>
</svg>
