<svg width="52" height="52" viewBox="0 0 52 52" fill="none" xmlns="http://www.w3.org/2000/svg">
<circle cx="26" cy="26" r="25.35" fill="white" stroke="url(#paint0_linear)" stroke-width="1.3"/>
<path d="M42.8681 22.5285C42.8154 21.0491 41.1244 19.4638 40.3849 18.6185C39.6454 17.7732 38.166 17.4034 36.8451 17.4034C35.5242 17.4034 34.8374 18.5131 34.8374 18.5131C34.8374 18.5131 36.7397 18.0375 37.2679 18.1961C37.7962 18.3546 40.438 20.1511 41.495 22.1061C42.5515 24.0611 41.3891 25.4346 40.8609 26.4385C40.3326 27.4423 38.1133 27.7067 36.2641 27.5482C34.4149 27.3896 33.4111 26.4385 32.9882 25.5932C32.5653 24.7478 32.6185 23.2157 32.6185 23.2157L27.8631 26.7555C28.286 27.495 29.9767 28.1291 31.2444 28.235C32.5126 28.3408 34.2033 29.0803 34.6788 29.3973C35.1544 29.7144 34.3618 30.1368 34.3618 30.1368C32.7238 29.1857 29.0255 28.0764 28.2856 28.0764C27.5461 28.0764 24.0586 23.8494 23.1078 22.4758C22.1567 21.1022 22.5796 19.9925 22.5796 19.0414C22.5796 18.0902 23.9005 15.3431 23.9005 15.3431C23.9005 15.3431 23.6361 14.0222 21.8401 15.4489C20.384 16.6053 18.9284 19.1158 18.2599 22.3887C18.9288 21.7635 19.5153 21.208 19.5153 21.208L18.1392 23.0525C18.0457 23.6165 17.9734 24.1992 17.9301 24.8006C17.8973 25.2583 17.8829 25.6858 17.8825 26.0891L19.0393 25.1703L17.8871 26.4869C17.925 28.028 18.188 29.1738 18.5225 30.1033L19.4091 28.7101L18.8685 30.955C19.1481 31.5746 19.4397 32.1029 19.673 32.6197C20.0874 33.5368 21.0649 34.6694 21.9378 35.5811L23.3186 34.4157L22.642 36.2955C23.0211 36.6708 23.3293 36.9623 23.4772 37.1106C24.0054 37.6389 23.2659 37.9033 23.2659 37.9033C20.8354 36.9525 17.8238 31.088 17.8238 31.088C17.8238 31.088 15.1293 31.2992 13.8611 29.3973C12.5929 27.4955 13.4914 25.1176 14.1782 23.744C14.865 22.3704 14.1782 22.7402 14.1782 22.7402C14.1782 22.7402 12.91 22.9514 12.5402 23.1099C12.1705 23.2684 9.95115 25.9102 9.6341 26.2273C9.31705 26.5443 9.26435 27.0726 9.26435 27.0726L10.1624 26.28C10.1624 26.28 9.89802 27.0726 9.52827 27.7594C9.15852 28.4462 9 29.8198 9 29.8198L9.79262 28.7101V32.0914C9.52827 33.6766 9.79262 34.2049 9.79262 34.2049L10.3209 31.8802C10.3209 31.8802 10.3209 33.6766 10.3209 34.2576C10.3209 34.8386 11.6945 37.5335 13.0154 39.7524C14.3363 41.9713 22.9485 42.2357 24.7449 42.0245C26.5201 41.8158 31.9572 38.6147 34.7366 36.0915L32.1952 36.4765L35.7889 34.9946C36.2739 34.4195 36.7299 33.7846 37.1472 33.1407L35.1009 33.9933C35.1757 33.9435 36.3151 33.2733 37.5008 32.578C38.8366 30.394 39.6972 28.2872 39.6972 28.2872C39.6972 28.2872 41.7049 27.1776 42.4975 26.0152C43.2906 24.8532 42.9208 24.0079 42.8681 22.5285Z" fill="black"/>
<path d="M35.7881 20.5205C36.0508 20.5205 36.2637 20.3076 36.2637 20.0449C36.2637 19.7823 36.0508 19.5693 35.7881 19.5693C35.5254 19.5693 35.3125 19.7823 35.3125 20.0449C35.3125 20.3076 35.5254 20.5205 35.7881 20.5205Z" fill="black"/>
<path d="M39.4863 24.2187C39.7781 24.2187 40.0146 23.9822 40.0146 23.6904C40.0146 23.3986 39.7781 23.1621 39.4863 23.1621C39.1945 23.1621 38.958 23.3986 38.958 23.6904C38.958 23.9822 39.1945 24.2187 39.4863 24.2187Z" fill="black"/>
<path d="M35.7889 26.8617C36.4758 26.9144 39.065 26.809 39.8046 26.4388C40.5441 26.069 41.4953 24.9593 41.2841 23.9554C41.0729 22.9514 40.4914 20.8378 39.1704 19.9924C37.8495 19.147 36.8455 18.7241 36.3172 18.7241C35.7889 18.7241 34.8904 18.6714 34.4679 19.1997C34.4679 19.1997 33.8865 19.5695 33.6225 21.1549C33.3582 22.7402 33.0411 23.9554 33.5167 24.9593C33.9923 25.9636 35.1021 26.809 35.7889 26.8617ZM36.1587 19.4114C36.9514 20.0982 36.8982 20.6265 36.6343 21.0494C36.3699 21.4723 36.0529 21.8421 36.0529 21.8421L35.6831 21.948L35.2075 21.6309L34.9962 21.948L35.1021 23.1631C35.1021 23.1631 35.6304 24.3783 36.3704 24.4841C37.1099 24.5899 37.6386 24.5899 37.6386 24.3783C37.6386 24.1666 37.4801 23.7441 37.8499 23.4271C38.2197 23.11 39.3821 22.529 39.7523 22.8456C40.1221 23.1627 40.545 24.8534 40.1752 25.2232C39.8054 25.593 39.8581 25.5403 39.5411 25.2232C39.224 24.9062 38.5371 23.4793 38.5371 23.4793C38.5371 23.4793 37.9557 23.4793 37.9557 23.9549C37.9557 24.4305 38.3255 24.6945 37.7972 24.9062C37.2689 25.1174 35.7366 24.8003 35.4723 24.5364C35.2079 24.272 34.8381 23.7437 34.7854 23.2154C34.7327 22.6871 34.5211 22.1588 34.6796 21.8417C34.8381 21.5246 35.0494 20.9432 35.261 21.2076C35.4723 21.4715 35.6839 21.8417 35.9479 21.5773C36.2122 21.3134 36.3708 20.8905 36.3708 20.8905C36.3708 20.8905 35.261 20.6792 34.5215 20.0451C34.5206 20.0455 35.366 18.7245 36.1587 19.4114ZM37.427 23.5329L36.9514 24.0085C36.9514 24.0085 36.106 23.85 35.6304 23.1631C35.1548 22.4763 36.106 22.1592 36.106 22.1592C36.8455 22.529 37.427 23.5329 37.427 23.5329Z" fill="black"/>
<path d="M30.716 14.8144C30.1877 14.6032 26.6472 13.5993 25.5379 15.1842C25.5379 15.1842 25.115 15.554 25.8023 16.4525C25.8023 16.4525 26.3306 15.4486 27.0706 15.3427C27.2053 15.3236 27.3919 15.3151 27.6095 15.3126L27.7047 14.5501L27.8951 15.3126C28.8769 15.3215 30.2591 15.4073 30.7692 15.29C30.7692 15.29 30.3994 15.554 29.0253 15.6071L29.078 16.9808L28.6245 15.6198C28.049 15.6369 27.6001 15.656 27.1377 15.8349L27.2287 17.5618L26.7832 16.0028C26.4594 16.1851 26.1117 16.4593 25.6964 16.875C25.6964 16.875 26.172 18.2487 27.493 18.1959C28.814 18.1432 31.6145 15.9237 32.0374 14.6559C32.037 14.6559 31.2443 15.0261 30.716 14.8144Z" fill="black"/>
<path d="M27.2319 9.99287C26.6959 10.1846 23.379 11.7784 23.5983 13.7008C23.5983 13.7008 23.5269 14.258 24.6362 14.4756C24.6362 14.4756 24.3667 13.3735 24.8508 12.8044C24.9388 12.7007 25.0731 12.5707 25.2342 12.4249L24.8007 11.7907L25.4484 12.2357C26.1897 11.5918 27.282 10.7405 27.5863 10.3146C27.5863 10.3146 27.4843 10.7575 26.4902 11.7074L27.4401 12.7016L26.1986 11.9828C25.7791 12.3769 25.4552 12.6884 25.2274 13.1292L26.4396 14.3626L25.0731 13.49C24.9516 13.8415 24.8725 14.2767 24.8368 14.8633C24.8368 14.8633 26.1034 15.5773 27.0576 14.6622C28.0122 13.7476 28.6395 10.2296 28.1159 9C28.1163 8.99915 27.7678 9.80118 27.2319 9.99287Z" fill="black"/>
<defs>
<linearGradient id="paint0_linear" x1="-2.3038" y1="7.7037" x2="60.3881" y2="35.5682" gradientUnits="userSpaceOnUse">
<stop stop-color="#F9804B"/>
<stop offset="1" stop-color="#FE9013"/>
</linearGradient>
</defs>
</svg>
