<svg width="52" height="52" viewBox="0 0 52 52" fill="none" xmlns="http://www.w3.org/2000/svg">
<circle cx="26" cy="26" r="25.35" fill="white" stroke="#4B9200" stroke-width="1.3"/>
<path d="M42.0874 32.8466C43.6108 29.9606 44.8499 26.4216 44.8499 22.6498C44.8499 20.7552 44.2458 18.6016 43.2339 16.8889C42.3491 15.3913 40.7083 13.4564 37.9144 12.7431C34.3787 11.8404 30.7964 12.6822 27.9179 13.3587C26.8776 13.6032 25.895 13.834 25.0533 13.9482C23.1659 14.2041 21.1718 14.1666 19.4576 14.1017H19.4564C19.1882 14.0915 18.9262 14.0808 18.6733 14.0703C17.5903 14.0255 15.096 13.9826 15.096 13.9826C14.9599 13.4157 14.6496 12.9514 14.2623 12.737C14.0982 12.6477 13.919 12.6024 13.738 12.6045C13.5569 12.6066 13.3786 12.656 13.216 12.7491C12.6833 13.0308 12.4278 13.6566 12.5486 14.3632C11.6949 14.7925 10.8609 15.6469 10.3551 16.3188C9.92088 16.8956 9.55261 17.8064 9.19635 18.6872C8.8336 19.5842 8.45855 20.5117 8.08321 20.8863C7.99133 20.9772 7.91008 21.0818 7.84153 21.1975C7.84034 21.1975 7.83914 21.1967 7.83788 21.1964C7.75939 21.178 7.67847 21.1789 7.6003 21.1991C7.52213 21.2193 7.44844 21.2583 7.38395 21.3137C7.31946 21.3691 7.26561 21.4396 7.22583 21.5207C7.18605 21.6018 7.16124 21.6917 7.15297 21.7847C7.14471 21.8776 7.15318 21.9716 7.17784 22.0605C7.2025 22.1494 7.2428 22.2313 7.29617 22.301C7.34954 22.3706 7.41479 22.4265 7.48774 22.465C7.56069 22.5035 7.63973 22.5238 7.71979 22.5245C7.78756 22.771 7.87909 23.0076 7.99262 23.23C8.74792 24.7476 9.94271 25.6911 10.9968 26.5233C11.5779 26.9821 12.1267 27.4156 12.5519 27.8996C12.8709 28.2754 13.1484 28.6964 13.3778 29.1526C13.3804 29.1584 13.3837 29.1634 13.3865 29.169C13.8181 30.012 14.1604 31.0404 14.2243 32.0227C14.3052 33.2636 14.4964 36.6144 14.5565 37.6728C14.3488 37.7499 14.154 37.868 13.9805 38.022C13.8514 38.1359 13.7567 38.2948 13.71 38.4757C13.6634 38.6566 13.6672 38.8501 13.721 39.0283C13.772 39.2102 13.8713 39.3684 14.0044 39.4801C14.1376 39.5917 14.2977 39.6511 14.4616 39.6496H17.992C18.1057 39.6497 18.2181 39.6208 18.3212 39.5648C18.4243 39.5088 18.5157 39.4271 18.5888 39.3254C19.3696 38.2417 21.3171 35.4487 22.5496 32.9146C27.3209 32.9092 30.5794 32.7071 32.4802 32.2972C32.7633 34.3865 33.1372 36.7672 33.2739 37.6257C33.1559 37.6902 33.0443 37.7695 32.9411 37.8622C32.7999 37.9893 32.6963 38.1648 32.6449 38.3641C32.5934 38.5634 32.5966 38.7766 32.6541 38.9736C32.7116 39.1706 32.8205 39.3418 32.9655 39.4629C33.1105 39.5841 33.2843 39.6493 33.4627 39.6494H36.7717C36.9675 39.6492 37.1573 39.5707 37.3095 39.427C38.4008 38.3937 40.3976 36.0334 42.0627 32.8937C42.0719 32.8787 42.0802 32.8629 42.0874 32.8466ZM18.7675 22.9163C17.7001 25.5273 15.8213 27.6394 13.8199 28.5009C13.5901 28.0812 13.322 27.6918 13.0205 27.3395C12.5523 26.8065 11.9794 26.3542 11.3728 25.8752C10.3297 25.0514 9.25088 24.1997 8.57262 22.8368C8.15973 22.0073 8.31394 21.686 8.51912 21.4813C9.00383 20.9976 9.39199 20.0377 9.80301 19.0213C10.1393 18.1895 10.4871 17.3294 10.8591 16.8355C11.3092 16.2375 12.1097 15.4104 12.8844 15.0478C12.9605 15.0121 13.0289 14.9572 13.0848 14.8871C13.5083 15.6096 14.5169 15.5031 14.7701 14.8452C14.7877 14.7979 14.8008 14.7485 14.8091 14.6979C15.8751 14.8597 17.5738 14.8079 18.6497 14.8526C18.832 14.8601 19.0201 14.8678 19.2105 14.8753C19.9951 17.4471 19.8404 20.292 18.7675 22.9163ZM39.3405 30.085C38.7155 29.9494 35.6133 29.4018 33.0116 31.1818C32.8878 30.2002 32.8034 29.3838 32.8034 28.9848C32.8034 28.881 32.7681 28.7815 32.7052 28.7081C32.6423 28.6347 32.557 28.5935 32.4681 28.5935C32.3792 28.5935 32.2939 28.6347 32.2311 28.7081C32.1682 28.7815 32.1329 28.881 32.1329 28.9848C32.1329 29.4482 32.2342 30.4031 32.3778 31.5235C30.7544 31.8775 28.0775 32.0745 24.2404 32.1213C25.0042 31.5798 25.6134 30.8026 26.0582 29.7918C26.6777 28.385 26.9515 26.552 26.85 24.4911C26.7357 22.1691 25.2071 19.0415 23.9788 16.5288C23.6943 15.9469 23.4219 15.3896 23.195 14.8963C23.841 14.8654 24.4906 14.8124 25.1304 14.7256C25.9997 14.6078 26.9956 14.3737 28.0499 14.1255C30.8669 13.4635 34.3726 12.6395 37.7708 13.5073C42.4395 14.6998 44.1794 19.7479 44.1794 22.6498C44.1794 25.9898 43.1627 29.1461 41.8508 31.7979C41.4656 31.1255 40.6629 30.3722 39.3405 30.085Z" fill="#4B9200"/>
<path d="M11.6307 18.3263C10.0778 17.7258 9.17459 19.4122 10.1629 20.4026C10.7033 20.9439 11.2171 22.1981 12.3913 22.0941C14.257 21.9292 14.0852 19.2743 11.6307 18.3263ZM10.9272 19.958C10.8352 19.958 10.7451 19.9303 10.6686 19.8784C10.592 19.8265 10.5323 19.7528 10.4971 19.6665C10.4618 19.5802 10.4526 19.4853 10.4706 19.3937C10.4885 19.3021 10.5329 19.2179 10.598 19.1519C10.6631 19.0859 10.7461 19.0409 10.8364 19.0227C10.9267 19.0045 11.0204 19.0138 11.1054 19.0495C11.1905 19.0853 11.2632 19.1458 11.3144 19.2235C11.3656 19.3011 11.3929 19.3924 11.3929 19.4858C11.3929 19.611 11.3438 19.7311 11.2565 19.8196C11.1692 19.9082 11.0507 19.9579 10.9272 19.958Z" fill="#4B9200"/>
<path d="M26.1645 33.2222C26.1604 33.2015 26.1507 33.1832 26.1371 33.1702C26.1235 33.1571 26.1067 33.1502 26.0895 33.1504C25.722 33.1552 23.7766 33.1803 22.9518 33.1844C22.9391 33.1844 22.9266 33.1883 22.9155 33.196C22.9045 33.2036 22.8951 33.2146 22.8885 33.2279C22.3583 34.2698 21.4283 35.8911 20.8141 36.9465C20.804 36.9639 20.799 36.985 20.7999 37.0064C20.8009 37.0278 20.8077 37.0481 20.8193 37.064L21.6776 38.2533L21.6684 38.2703C21.6654 38.2769 21.6616 38.2836 21.6585 38.2902C21.5916 38.4258 21.555 38.581 21.5527 38.7399C21.5504 38.8988 21.5823 39.0556 21.6453 39.1941C21.7082 39.3327 21.7999 39.448 21.9108 39.5282C22.0218 39.6084 22.148 39.6506 22.2765 39.6504H25.9262C26.0227 39.6503 26.1183 39.6264 26.2072 39.58C26.2962 39.5336 26.3767 39.4657 26.4441 39.3802C26.5115 39.2947 26.5644 39.1935 26.5997 39.0824C26.635 38.9712 26.652 38.8525 26.6496 38.7332C26.6374 38.1182 26.6053 37.1529 26.5258 36.1053C26.4601 35.135 26.3393 34.1716 26.1645 33.2222Z" fill="#4B9200"/>
<path d="M43.8541 30.6076C43.8492 30.5911 43.8401 30.5768 43.828 30.5665C43.8159 30.5561 43.8014 30.5503 43.7865 30.5498C43.7715 30.5493 43.7567 30.5541 43.7442 30.5636C43.7316 30.5731 43.7218 30.5868 43.716 30.6029C43.6169 30.884 43.5057 31.159 43.3828 31.427C42.3551 33.6713 41.1088 35.77 39.6685 37.6815C39.6562 37.6976 39.6496 37.7184 39.6499 37.7399C39.6502 37.7614 39.6575 37.7819 39.6703 37.7975L39.9193 38.1036C39.8461 38.2046 39.7847 38.3164 39.7367 38.4361C39.6852 38.5684 39.6631 38.7137 39.6727 38.8586C39.6823 39.0035 39.7231 39.1432 39.7914 39.2648C39.8522 39.3804 39.937 39.4763 40.0381 39.5436C40.1391 39.6109 40.253 39.6474 40.3694 39.6498H44.1498C44.2431 39.6498 44.3355 39.628 44.4215 39.5857C44.5075 39.5434 44.5854 39.4816 44.6506 39.4037C44.7159 39.3259 44.7671 39.2336 44.8012 39.1324C44.8354 39.0312 44.8519 38.923 44.8497 38.8143C44.8123 37.0638 44.6387 33.1846 43.8541 30.6076Z" fill="#4B9200"/>
</svg>
