<svg width="52" height="52" viewBox="0 0 52 52" fill="none" xmlns="http://www.w3.org/2000/svg">
<circle cx="26" cy="26" r="25.35" fill="white" stroke="url(#paint0_linear)" stroke-width="1.3"/>
<path d="M17.9403 28.2307C17.8323 28.0743 17.7145 27.9011 17.6305 27.7744C17.6237 27.7644 17.6153 27.756 17.6059 27.7499C17.5964 27.7438 17.586 27.74 17.5752 27.7388C17.1567 27.6893 16.135 27.5656 15.4215 27.4795C15.4103 27.4783 15.3991 27.4798 15.3884 27.484C15.3778 27.4882 15.368 27.4949 15.3596 27.5038C15.3512 27.5127 15.3443 27.5236 15.3396 27.5357C15.3348 27.5479 15.3321 27.5611 15.3317 27.5745C15.3251 27.7843 15.33 28.006 15.3374 28.1367C15.0652 28.3881 14.8227 28.6827 14.6165 29.0125C14.5445 29.1219 14.4997 29.2534 14.4871 29.3919C14.4744 29.5305 14.4946 29.6705 14.5451 29.796C14.5957 29.9215 14.6746 30.0273 14.7729 30.1014C14.8712 30.1755 14.9849 30.2148 15.101 30.2149H16.3937C16.4975 30.215 16.6 30.1873 16.6938 30.1339C16.7875 30.0805 16.8702 30.0027 16.9359 29.9061L17.9419 28.3554C17.9535 28.3374 17.9596 28.3153 17.9593 28.2927C17.959 28.27 17.9523 28.2481 17.9403 28.2307ZM45.2331 23.1795C44.1282 21.9454 42.4523 20.843 40.1082 19.8068C35.6639 17.8433 25.1225 16.3173 24.6759 16.253C24.6313 16.2469 24.5861 16.2502 24.5424 16.2629L20.885 17.3614H15.5286C14.488 17.3614 12.7363 17.8344 12.2576 19.0913C10.9236 19.9473 9.34085 20.9815 8.92476 21.2537C8.49549 21.2002 7.08821 21.1003 5.85149 21.8633C5.64486 21.9907 5.4735 22.1875 5.35824 22.4297C5.24297 22.6719 5.18876 22.9491 5.2022 23.2276C5.21564 23.5062 5.29615 23.774 5.43394 23.9986C5.57173 24.2232 5.76087 24.3949 5.97837 24.4928C5.98698 24.497 5.99579 24.5006 6.00474 24.5037C6.15058 24.5541 9.58556 25.7506 10.8132 25.9466C11.1725 26.004 11.5614 26.0703 11.9832 26.1415C12.7313 26.2682 13.5643 26.4087 14.497 26.5483C14.4968 26.5483 14.4966 26.5482 14.4964 26.548C14.4963 26.5478 14.4962 26.5475 14.4962 26.5473L17.9724 26.9768C17.9724 26.9768 18.7139 28.1188 18.8276 28.2693C18.6335 28.542 18.4792 28.8521 18.3712 29.1867C18.332 29.2995 18.3165 29.4221 18.3263 29.5438C18.336 29.6655 18.3707 29.7824 18.4271 29.8841C18.4835 29.9859 18.56 30.0693 18.6497 30.127C18.7394 30.1847 18.8396 30.2149 18.9413 30.2149H20.2827C20.3878 30.2152 20.4916 30.187 20.5863 30.1323C20.6811 30.0776 20.7643 29.998 20.8298 29.8992L21.8226 28.4108C21.9169 28.2697 21.9706 28.0958 21.9759 27.915C21.9795 27.7826 21.9799 27.5903 21.9676 27.3481C21.967 27.3345 21.9687 27.3209 21.9726 27.3081C21.9766 27.2954 21.9827 27.2837 21.9905 27.2739C21.9984 27.2641 22.0078 27.2564 22.0183 27.2511C22.0288 27.2459 22.04 27.2434 22.0514 27.2436C23.0092 27.2671 26.7222 27.2505 27.9843 27.1941C28.0035 27.1931 28.0225 27.2003 28.0378 27.2144C28.0531 27.2285 28.0638 27.2486 28.068 27.2712C28.1126 27.4858 28.1245 27.7084 28.103 27.9281C27.6999 28.2046 27.3573 28.5924 27.1036 29.0593C27.0411 29.171 27.0051 29.301 26.9995 29.4354C26.9938 29.5698 27.0187 29.7036 27.0714 29.8223C27.1241 29.941 27.2027 30.0403 27.2988 30.1095C27.3949 30.1787 27.5048 30.2153 27.6169 30.2152H29.463C29.5892 30.2153 29.7131 30.1743 29.8214 30.0964C30.1427 29.7699 30.9632 28.9443 31.1198 28.7866C31.1371 28.7692 31.1511 28.7475 31.161 28.7231L31.9974 26.6908L32.1416 26.6749C32.3838 26.6482 32.8331 26.6029 33.4038 26.5819C35.2552 26.5139 38.7495 25.9733 40.0373 25.7318C40.5622 25.6328 41.3804 26.0564 41.8245 26.6561C41.9604 26.8402 42.1771 27.2024 42.0955 27.5567C41.7956 28.8512 40.4221 30.0556 38.228 30.9492C35.5189 32.0527 27.053 32.4307 23.5389 32.5416C23.3388 32.548 23.1468 32.6373 22.9953 32.7944C22.8438 32.9514 22.7421 33.1665 22.7075 33.4032C22.6729 33.6399 22.7075 33.8838 22.8054 34.0934C22.9033 34.303 23.0585 34.4656 23.2447 34.5535C24.7476 35.2621 27.3405 35.75 30.6214 35.75C33.3775 35.75 36.6197 35.4056 40.1074 34.5585C44.7058 33.4421 46.8002 29.8873 46.8002 27.0569C46.8002 25.6457 46.2729 24.3414 45.2331 23.1795ZM13.1688 20.1393C13.2595 20.1393 13.348 20.1716 13.4234 20.232C13.4987 20.2925 13.5574 20.3784 13.5921 20.479C13.6268 20.5795 13.6358 20.6902 13.6182 20.7969C13.6005 20.9036 13.5568 21.0017 13.4928 21.0786C13.4287 21.1556 13.3471 21.208 13.2582 21.2292C13.1694 21.2505 13.0772 21.2396 12.9935 21.1979C12.9098 21.1563 12.8383 21.0857 12.7879 20.9953C12.7376 20.9048 12.7107 20.7984 12.7107 20.6896C12.7108 20.5436 12.759 20.4037 12.8449 20.3005C12.9308 20.1973 13.0474 20.1393 13.1688 20.1393ZM12.0862 25.2597C11.6635 25.1875 11.2722 25.1212 10.9113 25.0638C10.0478 24.9262 7.93192 24.2315 6.85833 23.8693C7.21675 23.9188 7.49524 23.9297 7.50265 23.9297C7.71852 23.9297 8.24749 23.9465 8.85967 23.9663C9.38534 23.9821 9.96704 24.0009 10.5125 24.0148L10.9731 24.6858C10.984 24.7017 10.9981 24.7142 11.014 24.7221C11.0299 24.73 11.0472 24.7331 11.0644 24.7312C11.0815 24.7292 11.098 24.7222 11.1124 24.7109C11.1268 24.6995 11.1386 24.6841 11.1469 24.666L11.4336 24.0326C11.5918 24.0336 11.7393 24.0346 11.8736 24.0346L12.2493 24.6719C12.2593 24.6888 12.2725 24.7026 12.2879 24.7119C12.3033 24.7213 12.3203 24.726 12.3375 24.7256C12.3548 24.7252 12.3717 24.7198 12.3868 24.7097C12.4018 24.6996 12.4146 24.6853 12.424 24.6679L12.7865 23.991C14.179 23.8762 16.411 23.702 17.6494 26.0515C15.3828 25.8179 13.5685 25.5111 12.0862 25.2597ZM31.5566 29.2886C31.5297 29.415 31.5311 29.5477 31.5605 29.6733C31.5899 29.7988 31.6464 29.9129 31.7242 30.0039C31.846 30.1426 32.0082 30.2183 32.176 30.2149H33.9435C34.0486 30.2153 34.1525 30.1871 34.2472 30.1325C34.342 30.0778 34.4252 29.998 34.4906 29.8992L35.598 28.2366C35.6643 28.1375 35.711 28.0216 35.7345 27.8976C35.7581 27.7737 35.7579 27.6449 35.7339 27.5211L35.7015 27.2011C35.699 27.176 35.6886 27.1529 35.6724 27.1368C35.6561 27.1206 35.6353 27.1126 35.6143 27.1144C34.8661 27.1801 32.8894 27.3092 32.4323 27.3432C32.4121 27.3446 32.393 27.3549 32.3788 27.3722C32.3646 27.3894 32.3562 27.4124 32.3552 27.4367C32.3442 27.6094 32.3436 27.7828 32.3533 27.9555C32.154 28.1039 31.9811 28.298 31.8444 28.5267C31.7076 28.7555 31.6099 29.0144 31.5566 29.2886Z" fill="black"/>
<defs>
<linearGradient id="paint0_linear" x1="-2.3038" y1="7.7037" x2="60.3881" y2="35.5682" gradientUnits="userSpaceOnUse">
<stop stop-color="#F9804B"/>
<stop offset="1" stop-color="#FE9013"/>
</linearGradient>
</defs>
</svg>
