<?xml version="1.0" encoding="UTF-8" standalone="no"?>
<svg
   xmlns:dc="http://purl.org/dc/elements/1.1/"
   xmlns:cc="http://creativecommons.org/ns#"
   xmlns:rdf="http://www.w3.org/1999/02/22-rdf-syntax-ns#"
   xmlns:svg="http://www.w3.org/2000/svg"
   xmlns="http://www.w3.org/2000/svg"
   xmlns:sodipodi="http://sodipodi.sourceforge.net/DTD/sodipodi-0.dtd"
   xmlns:inkscape="http://www.inkscape.org/namespaces/inkscape"
   width="80"
   height="80"
   viewBox="0 0 80 80"
   fill="none"
   version="1.1"
   id="svg23"
   sodipodi:docname="gorilla-sidebar.svg"
   inkscape:version="0.92.5 (2060ec1f9f, 2020-04-08)">
  <metadata
     id="metadata27">
    <rdf:RDF>
      <cc:Work
         rdf:about="">
        <dc:format>image/svg+xml</dc:format>
        <dc:type
           rdf:resource="http://purl.org/dc/dcmitype/StillImage" />
      </cc:Work>
    </rdf:RDF>
  </metadata>
  <sodipodi:namedview
     pagecolor="#ffffff"
     bordercolor="#666666"
     borderopacity="1"
     objecttolerance="10"
     gridtolerance="10"
     guidetolerance="10"
     inkscape:pageopacity="0"
     inkscape:pageshadow="2"
     inkscape:window-width="1848"
     inkscape:window-height="1103"
     id="namedview25"
     showgrid="false"
     inkscape:zoom="2.95"
     inkscape:cx="40"
     inkscape:cy="40"
     inkscape:window-x="72"
     inkscape:window-y="27"
     inkscape:window-maximized="1"
     inkscape:current-layer="svg23" />
  <path
     d="m 42.2709,28.0862 c 0,0 2.3745,-2.29 4.5034,-3.0534 0,0 -4.9947,-6.8064 -15.5574,-9.0328 0,0 -3.6028,2.1628 -4.2579,6.4247 0,0 -2.7839,0.5726 -2.7839,2.0356 l 3.3571,1.2722 c 0,0 6.3868,-0.9541 7.2056,-0.7633 0.8188,0.1908 0.2456,2.4808 -0.4913,2.8625 0,0 0.2456,0.7633 0.7369,1.0814 0,0 -1.6376,2.6081 -5.8954,1.2086 0,0 2.3745,3.9439 -3.6028,4.9617 0,0 -3.439,-0.7633 -3.9303,-4.3256 0,0 4.0122,0.2545 4.4216,0.6998 0,0 0.9007,-0.5089 -2.3746,-0.9542 0,0 -0.4913,-0.3817 1.3101,-1.5903 l -1.2282,-0.0636 -0.3275,-2.6717 c 0,0 -7.5331,1.3359 -9.4164,5.8523 0,0 -4.17596,9.3508 5.0766,29.5793 0,0 6.1411,0.9541 10.2352,-0.1909 0,0 0.2457,-2.9261 -0.3275,-3.3078 l -2.7021,-1.2086 c 0,0 5.3223,-7.2517 3.6847,-8.5875 0,0 -1.5558,-1.145 -1.9652,-1.8448 0,0 2.2927,0.8906 3.1934,0.8906 0,0 1.0645,-3.3078 3.1115,-5.6614 0,0 -4.9129,15.9028 -2.8659,20.292 0,0 13.7561,3.0534 13.0192,-1.463 0,0 0.0819,-1.6539 -2.047,-3.0534 0,0 3.7665,-3.3078 3.9303,-3.7531 0,0 3.1115,-1.3358 0.8188,-6.8064 -2.2927,-5.4706 -0.0819,-0.1272 -0.0819,-0.1272 0,0 15.6393,-11.132 5.5679,-19.9104 0,0 -4.0122,-3.6894 -10.317,1.2087 z"
     id="path4"
     inkscape:connector-curvature="0"
     style="fill:#000000" />
  <path
     d="M 33.625,26.0511 H 31.4499 25.6777 L 24.1719,25.4 c 0,0 0.6692,2.2788 1.0038,2.4416 0,0 1.8405,0.0814 2.8443,-0.5697 0,0 1.9241,1.4649 2.5097,1.5463 0,0 2.8443,-1.2208 3.0953,-2.7671 z"
     id="path6"
     inkscape:connector-curvature="0"
     style="fill:#000000" />
  <path
     d="m 27.5602,27.9636 -0.6814,1.0876 c 0,0 -0.5679,0.6215 0.6814,0.6215 h 0.9086 v -1.3983 c 0,0 -0.4543,-0.3108 -0.6815,-0.3108"
     id="path8"
     inkscape:connector-curvature="0"
     style="fill:#000000" />
  <path
     d="m 26.75,27.9636 -0.7366,0.8546 -0.9822,-0.1068 c 0,0 0.7367,-0.6944 1.7188,-0.7478 z"
     id="path10"
     inkscape:connector-curvature="0"
     style="fill:#000000" />
  <path
     d="m 56.4148,38.248 c 0,0 -3.6605,5.9235 -7.321,8.4345 l 0.5694,3.7344 c 0,0 1.8709,-0.3863 2.0336,-0.2576 0.1627,0.1288 5.2061,7.9838 5.1247,8.4345 0,0 -1.7082,0.5795 -1.7082,1.0302 l -0.1627,1.3521 c 0,0 9.0293,0.7082 11.6324,0 0,0 2.7657,-2.4467 0.5694,-7.7263 0,0 -3.9046,-3.4768 -3.9859,-4.6357 0,0 -0.7321,-1.996 0.488,-4.4426 0.0814,-0.1288 1.9523,-6.4385 -7.2397,-5.9235 z"
     id="path12"
     inkscape:connector-curvature="0"
     style="fill:#000000" />
  <path
     d="m 49.2801,52.026 c 0,0 0.0876,2.0425 -5.3426,5.3466 0,0 2.4523,2.3428 1.9268,3.0637 l 2.4524,-0.2403 c 0,0 1.6641,-3.6044 1.6641,-3.9648 0,0 -1.2262,-0.781 -1.4014,-1.2015 0,0 4.3792,-1.8022 2.7151,-3.0037 -0.4379,-0.1802 -2.0144,-0.1802 -2.0144,0 z"
     id="path14"
     inkscape:connector-curvature="0"
     style="fill:#000000" />
  <defs
     id="defs21" />
</svg>
