<svg width="73" height="66" viewBox="0 0 73 66" fill="none" xmlns="http://www.w3.org/2000/svg">
<path d="M65.6647 0.660156H15.6517C11.607 0.660156 8.31646 3.74271 8.31646 7.5317V8.45087H7.33525C3.29058 8.45087 0 11.5334 0 15.3224V47.0252C0 50.8142 3.29058 53.8967 7.33525 53.8967H10.9624L15.3923 64.9973C15.5312 65.3455 15.8634 65.5942 16.2568 65.6444C16.3054 65.6506 16.3539 65.6535 16.4022 65.6535C16.7444 65.6535 17.0699 65.5008 17.2744 65.2371L26.0665 53.8967H57.3483C61.393 53.8967 64.6835 50.8142 64.6835 47.0252V46.106H65.6647C69.7094 46.106 73 43.0235 73 39.2345V7.5317C73 3.74271 69.7094 0.660156 65.6647 0.660156ZM62.5274 47.0252C62.5274 49.7004 60.2041 51.8769 57.3483 51.8769H25.5171C25.172 51.8769 24.8477 52.0317 24.6449 52.2934L16.7091 62.529L12.7201 52.5332C12.5627 52.1385 12.1601 51.8769 11.7104 51.8769H7.33525C4.47948 51.8769 2.15612 49.7004 2.15612 47.0252V15.3224C2.15612 12.6472 4.47948 10.4707 7.33525 10.4707H57.3483C60.2041 10.4707 62.5274 12.6472 62.5274 15.3224V47.0252ZM70.8439 39.2345C70.8439 41.9097 68.5205 44.0862 65.6647 44.0862H64.6835V15.3224C64.6835 11.5334 61.393 8.45087 57.3483 8.45087H10.4726V7.5317C10.4726 4.85646 12.7959 2.67997 15.6517 2.67997H65.6647C68.5205 2.67997 70.8439 4.85646 70.8439 7.5317V39.2345Z" fill="url(#paint0_linear)"/>
<path d="M65.6647 0.660156H15.6517C11.607 0.660156 8.31646 3.74271 8.31646 7.5317V8.45087H7.33525C3.29058 8.45087 0 11.5334 0 15.3224V47.0252C0 50.8142 3.29058 53.8967 7.33525 53.8967H10.9624L15.3923 64.9973C15.5312 65.3455 15.8634 65.5942 16.2568 65.6444C16.3054 65.6506 16.3539 65.6535 16.4022 65.6535C16.7444 65.6535 17.0699 65.5008 17.2744 65.2371L26.0665 53.8967H57.3483C61.393 53.8967 64.6835 50.8142 64.6835 47.0252V46.106H65.6647C69.7094 46.106 73 43.0235 73 39.2345V7.5317C73 3.74271 69.7094 0.660156 65.6647 0.660156ZM62.5274 47.0252C62.5274 49.7004 60.2041 51.8769 57.3483 51.8769H25.5171C25.172 51.8769 24.8477 52.0317 24.6449 52.2934L16.7091 62.529L12.7201 52.5332C12.5627 52.1385 12.1601 51.8769 11.7104 51.8769H7.33525C4.47948 51.8769 2.15612 49.7004 2.15612 47.0252V15.3224C2.15612 12.6472 4.47948 10.4707 7.33525 10.4707H57.3483C60.2041 10.4707 62.5274 12.6472 62.5274 15.3224V47.0252ZM70.8439 39.2345C70.8439 41.9097 68.5205 44.0862 65.6647 44.0862H64.6835V15.3224C64.6835 11.5334 61.393 8.45087 57.3483 8.45087H10.4726V7.5317C10.4726 4.85646 12.7959 2.67997 15.6517 2.67997H65.6647C68.5205 2.67997 70.8439 4.85646 70.8439 7.5317V39.2345Z" fill="url(#paint1_linear)"/>
<path d="M65.6647 0.660156H15.6517C11.607 0.660156 8.31646 3.74271 8.31646 7.5317V8.45087H7.33525C3.29058 8.45087 0 11.5334 0 15.3224V47.0252C0 50.8142 3.29058 53.8967 7.33525 53.8967H10.9624L15.3923 64.9973C15.5312 65.3455 15.8634 65.5942 16.2568 65.6444C16.3054 65.6506 16.3539 65.6535 16.4022 65.6535C16.7444 65.6535 17.0699 65.5008 17.2744 65.2371L26.0665 53.8967H57.3483C61.393 53.8967 64.6835 50.8142 64.6835 47.0252V46.106H65.6647C69.7094 46.106 73 43.0235 73 39.2345V7.5317C73 3.74271 69.7094 0.660156 65.6647 0.660156ZM62.5274 47.0252C62.5274 49.7004 60.2041 51.8769 57.3483 51.8769H25.5171C25.172 51.8769 24.8477 52.0317 24.6449 52.2934L16.7091 62.529L12.7201 52.5332C12.5627 52.1385 12.1601 51.8769 11.7104 51.8769H7.33525C4.47948 51.8769 2.15612 49.7004 2.15612 47.0252V15.3224C2.15612 12.6472 4.47948 10.4707 7.33525 10.4707H57.3483C60.2041 10.4707 62.5274 12.6472 62.5274 15.3224V47.0252ZM70.8439 39.2345C70.8439 41.9097 68.5205 44.0862 65.6647 44.0862H64.6835V15.3224C64.6835 11.5334 61.393 8.45087 57.3483 8.45087H10.4726V7.5317C10.4726 4.85646 12.7959 2.67997 15.6517 2.67997H65.6647C68.5205 2.67997 70.8439 4.85646 70.8439 7.5317V39.2345Z" fill="url(#paint2_linear)"/>
<path d="M54.5194 23.7441H10.935C10.3396 23.7441 9.85693 24.1963 9.85693 24.754C9.85693 25.3118 10.3396 25.764 10.935 25.764H54.5194C55.1148 25.764 55.5974 25.3118 55.5974 24.754C55.5974 24.1963 55.1148 23.7441 54.5194 23.7441Z" fill="url(#paint3_linear)"/>
<path d="M54.5194 23.7441H10.935C10.3396 23.7441 9.85693 24.1963 9.85693 24.754C9.85693 25.3118 10.3396 25.764 10.935 25.764H54.5194C55.1148 25.764 55.5974 25.3118 55.5974 24.754C55.5974 24.1963 55.1148 23.7441 54.5194 23.7441Z" fill="url(#paint4_linear)"/>
<path d="M54.5194 23.7441H10.935C10.3396 23.7441 9.85693 24.1963 9.85693 24.754C9.85693 25.3118 10.3396 25.764 10.935 25.764H54.5194C55.1148 25.764 55.5974 25.3118 55.5974 24.754C55.5974 24.1963 55.1148 23.7441 54.5194 23.7441Z" fill="url(#paint5_linear)"/>
<path d="M54.5194 31.1016H10.935C10.3396 31.1016 9.85693 31.5537 9.85693 32.1115C9.85693 32.6693 10.3396 33.1214 10.935 33.1214H54.5194C55.1148 33.1214 55.5974 32.6693 55.5974 32.1115C55.5974 31.5537 55.1148 31.1016 54.5194 31.1016Z" fill="url(#paint6_linear)"/>
<path d="M54.5194 31.1016H10.935C10.3396 31.1016 9.85693 31.5537 9.85693 32.1115C9.85693 32.6693 10.3396 33.1214 10.935 33.1214H54.5194C55.1148 33.1214 55.5974 32.6693 55.5974 32.1115C55.5974 31.5537 55.1148 31.1016 54.5194 31.1016Z" fill="url(#paint7_linear)"/>
<path d="M54.5194 31.1016H10.935C10.3396 31.1016 9.85693 31.5537 9.85693 32.1115C9.85693 32.6693 10.3396 33.1214 10.935 33.1214H54.5194C55.1148 33.1214 55.5974 32.6693 55.5974 32.1115C55.5974 31.5537 55.1148 31.1016 54.5194 31.1016Z" fill="url(#paint8_linear)"/>
<path d="M45.2789 38.46H10.935C10.3396 38.46 9.85693 38.9121 9.85693 39.4699C9.85693 40.0277 10.3396 40.4798 10.935 40.4798H45.2789C45.8743 40.4798 46.3569 40.0277 46.3569 39.4699C46.3569 38.9121 45.8743 38.46 45.2789 38.46Z" fill="url(#paint9_linear)"/>
<path d="M45.2789 38.46H10.935C10.3396 38.46 9.85693 38.9121 9.85693 39.4699C9.85693 40.0277 10.3396 40.4798 10.935 40.4798H45.2789C45.8743 40.4798 46.3569 40.0277 46.3569 39.4699C46.3569 38.9121 45.8743 38.46 45.2789 38.46Z" fill="url(#paint10_linear)"/>
<path d="M45.2789 38.46H10.935C10.3396 38.46 9.85693 38.9121 9.85693 39.4699C9.85693 40.0277 10.3396 40.4798 10.935 40.4798H45.2789C45.8743 40.4798 46.3569 40.0277 46.3569 39.4699C46.3569 38.9121 45.8743 38.46 45.2789 38.46Z" fill="url(#paint11_linear)"/>
<defs>
<linearGradient id="paint0_linear" x1="33.6713" y1="71.9196" x2="-48.2603" y2="-22.5377" gradientUnits="userSpaceOnUse">
<stop offset="0.0647506" stop-color="#FEBDAB" stop-opacity="0.74"/>
<stop offset="0.225114" stop-color="#F3A9F8" stop-opacity="0.66"/>
<stop offset="0.45571" stop-color="#E0D8F0"/>
<stop offset="0.823271" stop-color="#EAF7FE"/>
<stop offset="0.991019" stop-color="#EAF7FE"/>
</linearGradient>
<linearGradient id="paint1_linear" x1="33.6713" y1="71.9196" x2="-48.2603" y2="-22.5377" gradientUnits="userSpaceOnUse">
<stop offset="0.0647506" stop-color="#FEBDAB" stop-opacity="0.74"/>
<stop offset="0.225114" stop-color="#F3A9F8" stop-opacity="0.66"/>
<stop offset="0.45571" stop-color="#E0D8F0"/>
<stop offset="0.823271" stop-color="#EAF7FE"/>
<stop offset="0.991019" stop-color="#EAF7FE"/>
</linearGradient>
<linearGradient id="paint2_linear" x1="33.6713" y1="71.9196" x2="-48.2603" y2="-22.5377" gradientUnits="userSpaceOnUse">
<stop offset="0.0647506" stop-color="#FED290" stop-opacity="0.7"/>
<stop offset="0.614306" stop-color="#FEBDAB"/>
<stop offset="0.65625" stop-color="#FED290" stop-opacity="0.7"/>
</linearGradient>
<linearGradient id="paint3_linear" x1="30.9547" y1="25.9587" x2="30.7339" y2="20.8242" gradientUnits="userSpaceOnUse">
<stop offset="0.0647506" stop-color="#FEBDAB" stop-opacity="0.74"/>
<stop offset="0.225114" stop-color="#F3A9F8" stop-opacity="0.66"/>
<stop offset="0.45571" stop-color="#E0D8F0"/>
<stop offset="0.823271" stop-color="#EAF7FE"/>
<stop offset="0.991019" stop-color="#EAF7FE"/>
</linearGradient>
<linearGradient id="paint4_linear" x1="30.9547" y1="25.9587" x2="30.7339" y2="20.8242" gradientUnits="userSpaceOnUse">
<stop offset="0.0647506" stop-color="#FEBDAB" stop-opacity="0.74"/>
<stop offset="0.225114" stop-color="#F3A9F8" stop-opacity="0.66"/>
<stop offset="0.45571" stop-color="#E0D8F0"/>
<stop offset="0.823271" stop-color="#EAF7FE"/>
<stop offset="0.991019" stop-color="#EAF7FE"/>
</linearGradient>
<linearGradient id="paint5_linear" x1="30.9547" y1="25.9587" x2="30.7339" y2="20.8242" gradientUnits="userSpaceOnUse">
<stop offset="0.0647506" stop-color="#FED290" stop-opacity="0.7"/>
<stop offset="0.614306" stop-color="#FEBDAB"/>
<stop offset="0.65625" stop-color="#FED290" stop-opacity="0.7"/>
</linearGradient>
<linearGradient id="paint6_linear" x1="30.9547" y1="33.3161" x2="30.7339" y2="28.1816" gradientUnits="userSpaceOnUse">
<stop offset="0.0647506" stop-color="#FEBDAB" stop-opacity="0.74"/>
<stop offset="0.225114" stop-color="#F3A9F8" stop-opacity="0.66"/>
<stop offset="0.45571" stop-color="#E0D8F0"/>
<stop offset="0.823271" stop-color="#EAF7FE"/>
<stop offset="0.991019" stop-color="#EAF7FE"/>
</linearGradient>
<linearGradient id="paint7_linear" x1="30.9547" y1="33.3161" x2="30.7339" y2="28.1816" gradientUnits="userSpaceOnUse">
<stop offset="0.0647506" stop-color="#FEBDAB" stop-opacity="0.74"/>
<stop offset="0.225114" stop-color="#F3A9F8" stop-opacity="0.66"/>
<stop offset="0.45571" stop-color="#E0D8F0"/>
<stop offset="0.823271" stop-color="#EAF7FE"/>
<stop offset="0.991019" stop-color="#EAF7FE"/>
</linearGradient>
<linearGradient id="paint8_linear" x1="30.9547" y1="33.3161" x2="30.7339" y2="28.1816" gradientUnits="userSpaceOnUse">
<stop offset="0.0647506" stop-color="#FED290" stop-opacity="0.7"/>
<stop offset="0.614306" stop-color="#FEBDAB"/>
<stop offset="0.65625" stop-color="#FED290" stop-opacity="0.7"/>
</linearGradient>
<linearGradient id="paint9_linear" x1="26.6926" y1="40.6745" x2="26.416" y2="35.5454" gradientUnits="userSpaceOnUse">
<stop offset="0.0647506" stop-color="#FEBDAB" stop-opacity="0.74"/>
<stop offset="0.225114" stop-color="#F3A9F8" stop-opacity="0.66"/>
<stop offset="0.45571" stop-color="#E0D8F0"/>
<stop offset="0.823271" stop-color="#EAF7FE"/>
<stop offset="0.991019" stop-color="#EAF7FE"/>
</linearGradient>
<linearGradient id="paint10_linear" x1="26.6926" y1="40.6745" x2="26.416" y2="35.5454" gradientUnits="userSpaceOnUse">
<stop offset="0.0647506" stop-color="#FEBDAB" stop-opacity="0.74"/>
<stop offset="0.225114" stop-color="#F3A9F8" stop-opacity="0.66"/>
<stop offset="0.45571" stop-color="#E0D8F0"/>
<stop offset="0.823271" stop-color="#EAF7FE"/>
<stop offset="0.991019" stop-color="#EAF7FE"/>
</linearGradient>
<linearGradient id="paint11_linear" x1="26.6926" y1="40.6745" x2="26.416" y2="35.5454" gradientUnits="userSpaceOnUse">
<stop offset="0.0647506" stop-color="#FED290" stop-opacity="0.7"/>
<stop offset="0.614306" stop-color="#FEBDAB"/>
<stop offset="0.65625" stop-color="#FED290" stop-opacity="0.7"/>
</linearGradient>
</defs>
</svg>
