<?xml version="1.0" encoding="UTF-8" standalone="no"?>
<svg
   xmlns:dc="http://purl.org/dc/elements/1.1/"
   xmlns:cc="http://creativecommons.org/ns#"
   xmlns:rdf="http://www.w3.org/1999/02/22-rdf-syntax-ns#"
   xmlns:svg="http://www.w3.org/2000/svg"
   xmlns="http://www.w3.org/2000/svg"
   xmlns:sodipodi="http://sodipodi.sourceforge.net/DTD/sodipodi-0.dtd"
   xmlns:inkscape="http://www.inkscape.org/namespaces/inkscape"
   width="26"
   height="26"
   viewBox="0 0 26 26"
   fill="none"
   version="1.1"
   id="svg4"
   sodipodi:docname="instagram-green.svg"
   inkscape:version="0.92.5 (2060ec1f9f, 2020-04-08)">
  <metadata
     id="metadata10">
    <rdf:RDF>
      <cc:Work
         rdf:about="">
        <dc:format>image/svg+xml</dc:format>
        <dc:type
           rdf:resource="http://purl.org/dc/dcmitype/StillImage" />
      </cc:Work>
    </rdf:RDF>
  </metadata>
  <defs
     id="defs8" />
  <sodipodi:namedview
     pagecolor="#ffffff"
     bordercolor="#666666"
     borderopacity="1"
     objecttolerance="10"
     gridtolerance="10"
     guidetolerance="10"
     inkscape:pageopacity="0"
     inkscape:pageshadow="2"
     inkscape:window-width="1848"
     inkscape:window-height="1103"
     id="namedview6"
     showgrid="false"
     inkscape:zoom="9.0769231"
     inkscape:cx="-26.991525"
     inkscape:cy="12.614407"
     inkscape:window-x="72"
     inkscape:window-y="27"
     inkscape:window-maximized="1"
     inkscape:current-layer="svg4" />
  <circle
     cx="13"
     cy="13"
     r="13"
     id="circle2"
     fill-opacity="0.5"
     fill="#C4C4C4"
     style="fill:#4b9200;fill-opacity:1" />
  <path
     inkscape:connector-curvature="0"
     style="clip-rule:evenodd;fill:#ffffff;fill-rule:evenodd"
     d="m 9.7017199,5.0482875 c -0.8516195,0.038716 -1.4330895,0.1738636 -1.9419795,0.3717276 -0.52617,0.204293 -0.97206,0.478017 -1.4168,0.922745 -0.445027,0.44473 -0.718472,0.89075 -0.922771,1.41691 -0.197869,0.50902 -0.3331636,1.09047 -0.3718803,1.94193 -0.039002,0.8533099 -0.048289,1.1256099 -0.048289,3.2983989 0,2.1728 0.00929,2.4449 0.048289,3.2984 0.038717,0.8515 0.1740113,1.4329 0.3718803,1.9416 0.204299,0.5262 0.477744,0.9725 0.922771,1.4171 0.44474,0.444901 0.89063,0.7183 1.4168,0.9229 0.50889,0.1979 1.09036,0.333 1.9419795,0.3717 C 10.55506,20.9907 10.82736,21 13.00007,21 c 2.17283,0 2.44513,-0.0093 3.29853,-0.0483 0.8514,-0.0387 1.4329,-0.1738 1.9421,-0.3717 0.5257,-0.2046 0.972,-0.478 1.4168,-0.9229 0.4447,-0.4446 0.718,-0.890899 0.9226,-1.4171 0.1977,-0.5087 0.3332,-1.0901 0.3719,-1.941599 C 20.991,15.4449 21,15.1728 21,13 c 0,-2.172789 -0.009,-2.44509 -0.048,-3.2983999 -0.0387,-0.85146 -0.1742,-1.43291 -0.3719,-1.94193 -0.2046,-0.52616 -0.4779,-0.97218 -0.9226,-1.41691 -0.4448,-0.444728 -0.8911,-0.718452 -1.4168,-0.922745 -0.5092,-0.197864 -1.0907,-0.3330119 -1.9421,-0.3717276 -0.8534,-0.038858 -1.1257,-0.048287 -3.29853,-0.048287 -2.17271,0 -2.44501,0.00943 -3.2983501,0.048287 z m 0.06575,14.4633115 c -0.7800495,-0.0355 -1.2036495,-0.1655 -1.4853795,-0.2752 -0.37359,-0.1454 -0.63989,-0.3187 -0.91991,-0.5986 -0.28002,-0.2798 -0.45332,-0.5463 -0.59861,-0.9197 -0.10958,-0.2819 -0.23973,-0.7055 -0.27545,-1.4855 -0.03843,-0.8436 -0.04671,-1.0967 -0.04671,-3.23268 0,-2.136219 0.00828,-2.389089 0.04671,-3.2328289 0.03572,-0.77989 0.16587,-1.20347 0.27545,-1.48534 0.14529,-0.37344 0.31859,-0.64002 0.59861,-0.91989 0.28002,-0.27987 0.54632,-0.45345 0.91991,-0.59831 0.28173,-0.10957 0.70533,-0.23986 1.4853795,-0.27558 0.8434801,-0.03843 1.0966401,-0.04657 3.2326301,-0.04657 2.136,0 2.389,0.00814 3.2329,0.04657 0.7798,0.03572 1.2034,0.16601 1.4854,0.27558 0.3734,0.14486 0.6399,0.31844 0.9198,0.59831 0.28,0.27987 0.4531,0.54645 0.5984,0.91989 0.1096,0.28187 0.2399,0.70545 0.2756,1.48534 0.0385,0.8437399 0.0463,1.0966099 0.0463,3.2328289 0,2.13598 -0.0078,2.38908 -0.0463,3.23268 -0.0357,0.78 -0.166,1.2036 -0.2756,1.4855 -0.1453,0.3734 -0.3184,0.6399 -0.5984,0.9197 -0.2799,0.2799 -0.5464,0.4532 -0.9198,0.5986 -0.282,0.1097 -0.7056,0.2397 -1.4854,0.2752 -0.8436,0.0387 -1.0966,0.0467 -3.2329,0.0467 -2.13599,0 -2.38915,-0.008 -3.2326301,-0.0467 z M 16.3105,8.7294301 c 0,0.53002 0.4298,0.96004 0.9601,0.96004 0.5302,0 0.9599,-0.43002 0.9599,-0.96004 0,-0.5303 -0.4297,-0.95989 -0.9599,-0.95989 -0.5303,0 -0.9601,0.42959 -0.9601,0.95989 z M 8.8916004,13.000169 c 0,2.26893 1.8393996,4.10803 4.1082596,4.10803 2.26904,0 4.10814,-1.8391 4.10814,-4.10803 0,-2.268929 -1.8391,-4.1081389 -4.10814,-4.1081389 -2.26886,0 -4.1082596,1.8392099 -4.1082596,4.1081389 z m 1.4423796,-8e-5 c 0,-1.472769 1.19379,-2.666659 2.6666,-2.666659 1.47281,0 2.66672,1.19389 2.66672,2.666659 0,1.47291 -1.19391,2.66671 -2.66672,2.66671 -1.47281,0 -2.6666,-1.1938 -2.6666,-2.66671 z"
     id="path2" />
</svg>
