<?xml version="1.0" encoding="UTF-8" standalone="no"?>
<svg
   xmlns:dc="http://purl.org/dc/elements/1.1/"
   xmlns:cc="http://creativecommons.org/ns#"
   xmlns:rdf="http://www.w3.org/1999/02/22-rdf-syntax-ns#"
   xmlns:svg="http://www.w3.org/2000/svg"
   xmlns="http://www.w3.org/2000/svg"
   xmlns:sodipodi="http://sodipodi.sourceforge.net/DTD/sodipodi-0.dtd"
   xmlns:inkscape="http://www.inkscape.org/namespaces/inkscape"
   width="40"
   height="40"
   viewBox="0 0 40 40"
   fill="none"
   version="1.1"
   id="svg6"
   sodipodi:docname="roller-icon.svg"
   inkscape:version="0.92.5 (2060ec1f9f, 2020-04-08)">
  <metadata
     id="metadata12">
    <rdf:RDF>
      <cc:Work
         rdf:about="">
        <dc:format>image/svg+xml</dc:format>
        <dc:type
           rdf:resource="http://purl.org/dc/dcmitype/StillImage" />
      </cc:Work>
    </rdf:RDF>
  </metadata>
  <defs
     id="defs10" />
  <sodipodi:namedview
     pagecolor="#ffffff"
     bordercolor="#666666"
     borderopacity="1"
     objecttolerance="10"
     gridtolerance="10"
     guidetolerance="10"
     inkscape:pageopacity="0"
     inkscape:pageshadow="2"
     inkscape:window-width="1848"
     inkscape:window-height="1103"
     id="namedview8"
     showgrid="false"
     inkscape:zoom="5.9"
     inkscape:cx="20.084746"
     inkscape:cy="19.322034"
     inkscape:window-x="72"
     inkscape:window-y="27"
     inkscape:window-maximized="1"
     inkscape:current-layer="svg6" />
  <path
     fill-rule="evenodd"
     clip-rule="evenodd"
     d="M31.4774 19.9999C31.4774 26.3438 26.3443 31.4769 20.0004 31.4769C13.6566 31.4769 8.52344 26.3438 8.52344 19.9999C8.52344 13.6561 13.6566 8.52295 20.0004 8.52295C26.3443 8.52295 31.4774 13.6561 31.4774 19.9999ZM20.0004 10.3147C25.3757 10.3147 29.7341 14.6246 29.7341 19.9999C29.7341 25.3752 25.3757 29.7336 20.0004 29.7336C14.6251 29.7336 10.3152 25.3752 10.3152 19.9999C10.3152 14.6246 14.6251 10.3147 20.0004 10.3147Z"
     fill="#FE9013"
     id="path2" />
  <path
     fill-rule="evenodd"
     clip-rule="evenodd"
     d="M20 0C31.0412 0 40 8.95884 40 20C40 31.0412 31.0412 40 20 40C8.95884 40 0 31.0412 0 20C0 8.95884 8.95884 0 20 0ZM20 1.79177C30.0726 1.79177 38.2567 9.92736 38.2567 20C38.2567 30.0726 30.0726 38.2567 20 38.2567C9.92736 38.2567 1.79177 30.0726 1.79177 20C1.79177 9.92736 9.92736 1.79177 20 1.79177Z"
     fill="#FE9013"
     id="path4" />
  <circle
     style="fill:#ffee2e"
     cx="20"
     cy="20"
     r="5"
     id="circle2" />
</svg>
