<?xml version="1.0" encoding="UTF-8" standalone="no"?>
<svg
   xmlns:dc="http://purl.org/dc/elements/1.1/"
   xmlns:cc="http://creativecommons.org/ns#"
   xmlns:rdf="http://www.w3.org/1999/02/22-rdf-syntax-ns#"
   xmlns:svg="http://www.w3.org/2000/svg"
   xmlns="http://www.w3.org/2000/svg"
   xmlns:sodipodi="http://sodipodi.sourceforge.net/DTD/sodipodi-0.dtd"
   xmlns:inkscape="http://www.inkscape.org/namespaces/inkscape"
   width="26"
   height="26"
   viewBox="0 0 26 26"
   fill="none"
   version="1.1"
   id="svg4"
   sodipodi:docname="twitter.svg"
   inkscape:version="0.92.5 (2060ec1f9f, 2020-04-08)">
  <metadata
     id="metadata10">
    <rdf:RDF>
      <cc:Work
         rdf:about="">
        <dc:format>image/svg+xml</dc:format>
        <dc:type
           rdf:resource="http://purl.org/dc/dcmitype/StillImage" />
      </cc:Work>
    </rdf:RDF>
  </metadata>
  <defs
     id="defs8" />
  <sodipodi:namedview
     pagecolor="#ffffff"
     bordercolor="#666666"
     borderopacity="1"
     objecttolerance="10"
     gridtolerance="10"
     guidetolerance="10"
     inkscape:pageopacity="0"
     inkscape:pageshadow="2"
     inkscape:window-width="1848"
     inkscape:window-height="1103"
     id="namedview6"
     showgrid="false"
     inkscape:zoom="9.0769231"
     inkscape:cx="-27.101695"
     inkscape:cy="12.614407"
     inkscape:window-x="72"
     inkscape:window-y="27"
     inkscape:window-maximized="1"
     inkscape:current-layer="svg4" />
  <circle
     cx="13"
     cy="13"
     r="13"
     fill="#C4C4C4"
     fill-opacity="0.5"
     id="circle2"
     style="fill:#c4c4c4;fill-opacity:0" />
  <path
     inkscape:connector-curvature="0"
     style="clip-rule:evenodd;fill:#ffffff;fill-rule:evenodd"
     d="m 21,7.6571297 c -0.5886,0.28108 -1.2213,0.47124 -1.8853,0.55664 0.6776,-0.43754 1.1983,-1.13005 1.4432,-1.955503 -0.6342,0.405033 -1.3368,0.699256 -2.0845,0.857773 -0.5987,-0.686978 -1.4518,-1.11604 -2.396,-1.11604 -1.81276,0 -3.28252,1.58227 -3.28252,3.53414 0,0.27694 0.02896,0.5467903 0.08496,0.8055703 -2.72816,-0.14745 -5.1468799,-1.5546103 -6.7659199,-3.6930063 -0.28256,0.522066 -0.44448,1.129186 -0.44448,1.776926 0,1.22616 0.57952,2.3079803 1.46032,2.9418903 -0.53808,-0.0185 -1.04432,-0.17736 -1.48672,-0.44203 -3.2e-4,0.01452 -3.2e-4,0.02939 -3.2e-4,0.04426 0,1.71244 1.13152,3.14086 2.6331199,3.46568 -0.2753599,0.08073 -0.56544,0.12412 -0.8648,0.12412 -0.21152,0 -0.41712,-0.0223 -0.6176,-0.06361 0.41776,1.40404 1.6299201,2.42606 3.0664,2.45456 -1.12336,0.9479 -2.53888,1.513 -4.0768,1.513 C 5.51808,18.4615 5.2568,18.4447 5,18.412 6.45264,19.4148 8.1782401,20 10.03184,20 16.0698,20 19.3715,14.61443 19.3715,9.9440097 c 0,-0.15333 -0.0032,-0.3058 -0.0094,-0.45741 0.6414,-0.49821 1.1979,-1.12071 1.6379,-1.82947 z"
     id="path2" />
</svg>
