<?xml version="1.0" encoding="UTF-8" standalone="no"?>
<svg
   xmlns:dc="http://purl.org/dc/elements/1.1/"
   xmlns:cc="http://creativecommons.org/ns#"
   xmlns:rdf="http://www.w3.org/1999/02/22-rdf-syntax-ns#"
   xmlns:svg="http://www.w3.org/2000/svg"
   xmlns="http://www.w3.org/2000/svg"
   xmlns:sodipodi="http://sodipodi.sourceforge.net/DTD/sodipodi-0.dtd"
   xmlns:inkscape="http://www.inkscape.org/namespaces/inkscape"
   width="26"
   height="26"
   viewBox="0 0 26 26"
   fill="none"
   version="1.1"
   id="svg4"
   sodipodi:docname="youtube.svg"
   inkscape:version="0.92.5 (2060ec1f9f, 2020-04-08)">
  <metadata
     id="metadata10">
    <rdf:RDF>
      <cc:Work
         rdf:about="">
        <dc:format>image/svg+xml</dc:format>
        <dc:type
           rdf:resource="http://purl.org/dc/dcmitype/StillImage" />
      </cc:Work>
    </rdf:RDF>
  </metadata>
  <defs
     id="defs8" />
  <sodipodi:namedview
     pagecolor="#ffffff"
     bordercolor="#666666"
     borderopacity="1"
     objecttolerance="10"
     gridtolerance="10"
     guidetolerance="10"
     inkscape:pageopacity="0"
     inkscape:pageshadow="2"
     inkscape:window-width="1848"
     inkscape:window-height="1103"
     id="namedview6"
     showgrid="false"
     inkscape:zoom="9.0769231"
     inkscape:cx="-27.101695"
     inkscape:cy="12.614407"
     inkscape:window-x="72"
     inkscape:window-y="27"
     inkscape:window-maximized="1"
     inkscape:current-layer="svg4" />
  <circle
     cx="13"
     cy="13"
     r="13"
     fill="#C4C4C4"
     fill-opacity="0.5"
     id="circle2"
     style="fill:#c4c4c4;fill-opacity:0" />
  <path
     inkscape:connector-curvature="0"
     style="clip-rule:evenodd;fill:#ffffff;fill-rule:evenodd"
     d="m 16.006215,12.27972 -4.5124,-2.25566 c 0,0 -1.25341,-0.5699299 -1.25341,0.50145 v 5.012331 c 0,0 0.02319,0.76453 1.25341,0.25051 0.85598,-0.35777 4.5124,-2.25566 4.5124,-2.25566 0,0 0.9329,-0.59766 0,-1.252971 z m 5.5151,5.01235 c -0.5589,1.5897 -1.7544,1.7945 -2.7576,2.0049 -1.4785,0.3101 -10.99133,0.2711 -12.53448,-0.2507 -0.96216,-0.3253 -1.554188,-0.4653 -2.005363,-2.756689 -0.2888649,-1.46621 -0.3079348,-5.779671 0,-7.2677709 0.298183,-1.44086 1.047103,-2.117406 2.506813,-2.255662 3.92081,-0.371429 10.47433,-0.3189865 12.53433,0 1.9098,0.295583 2.3089,1.434572 2.507,2.506172 0.3207,1.7349199 0.3584,6.2869809 -0.2507,8.0197499 z"
     id="path2" />
</svg>
